<?xml version="1.0" encoding="utf-8"?>
<!-- Generator: Adobe Illustrator 24.2.1, SVG Export Plug-In . SVG Version: 6.00 Build 0)  -->
<svg version="1.1" id="Capa_1" xmlns="http://www.w3.org/2000/svg" xmlns:xlink="http://www.w3.org/1999/xlink" x="0px" y="0px"
	 viewBox="0 0 223 238" style="enable-background:new 0 0 223 238;" xml:space="preserve">
<style type="text/css">
	.st0{fill:#FFFFFF;}
</style>
<g>
	<path class="st0" d="M81.66,25.37v83.27c0,1.93,2.25,2.99,3.73,1.75c10.31-8.62,20.83-18.01,34.2-21.2
		c13.58-3.25,31.18-1.3,40.59,10.03c16.33,19.65,8.12,69.78,10.14,95.22c1.05,13.17,7.96,15.5,19.34,15.86
		c1.23,0.04,2.21,1.04,2.21,2.27l0,0.06c0,1.26-1.02,2.27-2.27,2.27h-67.95c-1.07,0-2-0.75-2.22-1.8v0
		c-0.3-1.41,0.77-2.74,2.21-2.75c8.75-0.05,17.76-1.08,21.04-10.48c0.09-0.26,0.13-0.54,0.12-0.82
		c-0.66-22.48,1.43-46.05,0.19-68.38c-0.38-6.88-1.34-15.23-6.3-20.38c-13.91-14.43-43.85-1.83-54.53,11.98
		c-0.32,0.42-0.47,0.93-0.45,1.46c0.86,21.98-1.33,44.99-0.07,66.82c0.16,2.79,0.61,7.17,1.24,9.82c2.06,8.67,12.86,9.49,20.76,9.88
		c1.21,0.06,2.16,1.06,2.16,2.27l0,0.11c0,1.26-1.02,2.27-2.27,2.27H34.37c-1.26,0-2.27-1.02-2.27-2.27l0-0.16
		c0-1.19,0.93-2.19,2.12-2.27c11.68-0.82,19.3-1.91,20.61-15.7c0.01-0.1,0.01-0.21,0.01-0.32c-1.63-44.23,2.48-90.37,0.12-134.37
		c-0.18-3.36-0.63-8.92-1.65-12.01c-3.1-9.42-11.48-7.45-19.07-5.66c-1,0.24-2.04-0.24-2.53-1.15l-0.29-0.55
		c-0.66-1.24-0.04-2.79,1.3-3.23l42.42-14c0.23-0.08,0.47-0.11,0.71-0.11l3.55,0C80.64,23.1,81.66,24.12,81.66,25.37z"/>
	<g>
		<path class="st0" d="M144.85,32.79c-1.69,0.79-4.5,2.44-3.86,3.96l-1.29-0.01l-0.37-1.32c-1.83,0.67-4.48,0.58-4.86,2.95
			c-0.43,2.65,2.6-0.93,3.27-0.31L137.08,40l1.9,0.06l0.37,1.71c1.8,0.37,2.96-0.97,4.56-1.14c2.48-0.28,6.67,1.07,8.81,2.34
			c0.99,0.59,0.98,1.76,1.82,2.24c1.28,0.72,4.44,1.08,5.99,1.99c0.36,0.53-2.94,6.58-3.42,6.93c-1.97,1.44-2.49,1.67-4.67,3.47
			c-3.06,2.54-5.94,2.9-5.9,7.77c-4.93-2.13-1.13-8.91-2.39-12.57c-0.37-1.07-4.87-3.18-5.13-6l1.97-4.17l-9.16-2.24
			c-0.45-0.6-0.64-1.18-0.65-1.73c-3.22,3.38-5.21,7.95-5.21,12.98c0,10.4,8.43,18.83,18.83,18.83c10.4,0,18.83-8.43,18.83-18.83
			C163.63,41.24,155.23,32.82,144.85,32.79z"/>
	</g>
</g>
</svg>
